<svg xmlns="http://www.w3.org/2000/svg" viewBox="0 0 512 512">
	<defs>
		<style>
			#user {
				stroke: white;
				stroke-width: 20;
				stroke-linejoin: round;
			}
			
			.outline {
				fill: white;
			}
		</style>
	</defs>

	<rect width="480" height="480" x="16" y="16" rx="128" ry="128" fill="hsl(220, 66%, 66%)" stroke="hsl(220, 66%, 60%)" stroke-width="16" />
	
	<g transform="translate(256, 256) scale(0.9) translate(-256, -256)">
		<g id="map" transform="translate(256 256) scale(0.8 -0.8) translate(-256 -256)">
			<g transform="scale(22) translate(0 -1029.5)">
				<path class="outline" d="m8 1030.4 8 1v19l -8 -1z" fill="#b0b0c0"/>
				<path class="outline" d="m2 1031.4 6 -1v19l -6 1z" fill="#bdc3c7"/>
				<path class="outline" d="m16 1031.4 6 -1.5v 19.5l -6 1 z" fill="#bdc3c7"/>
				<path d="m3 1032.4 5 -1v17l -5 1z" fill="#40c040"/>
				<path d="m8 1031.4 8 1v17l -8 -1z" fill="#80f080"/>
				<path d="m21 1048.4 -5 1v -17l5 -1z" fill="#40c040"/>
				<path d="m5.6875 1031.8 -2.3125 0.5 4.625 4.9v -2.9l -2.3125 -2.5z" fill="lightgrey"/>
				<path d="m21 1046.4 -5 1v -6l5 -3z" fill="lightgrey"/>
				<path d="m21 1048.4 -5 1v -6l5 -3z" fill="#80b0ff"/>
				<path d="m8 1042.4 8 -1v6l -8 -1z" fill="lightgrey"/>
				<path d="m8 1044.4 8 -1v6l -8 -1z" fill="#c0d0f0"/>
				<path d="m3 1045.4 5 -3v4l -5 1z" fill="lightgrey"/>
				<path d="m3 1047.4 5 -3v4l -5 1z" fill="#80b0ff"/>
				<path d="m8 8.8008v -2.8985l4 8.6597h -1.469z" transform="translate(0 1028.4)" fill="lightgrey"/>
			</g>
		</g>

		<g id="user">
			<g transform="translate(50, 50)">
				<path d="M391.113, 426.667H35.554v-88.892c0-22.746, 8.678-45.495, 26.039-62.848 c17.353-17.357, 40.102-26.039, 62.848-26.039h177.783c22.75, 0, 45.495, 8.678, 62.852, 26.039 c17.353, 17.353, 26.035, 40.102, 26.035, 62.848V426.667z"/>
				<circle cx="215" cy="135" r="110"/>
			</g>
		</g>
	</g>
</svg>