<svg xmlns="http://www.w3.org/2000/svg" viewBox="0 32 512 416">
	<defs>
		<style>
			#cloud {
				fill: white;
				stroke: rgba(255, 255, 255, 0.5);
				stroke-width: 2;
				stroke-linejoin: round;
			}

			#user {
				stroke: white;
				stroke-width: 20;
				stroke-linejoin: round;
			}
			
			#map .outline {
				// fill: white;
			}
		</style>
	</defs>

	<rect width="512" height="512" fill="hsl(220, 66%, 66%)" />

	<g id="cloud" transform="translate(0, -15) scale(16)">
		<path d="M30.674 18.75c-0.201-2.96-2.352-5.364-5.169-5.949l-0.042-0.007c0.145-0.341 0.229-0.738 0.229-1.154 0-0.277-0.037-0.545-0.107-0.8l0.005 0.021c-0.451-1.39-1.572-2.445-2.971-2.796l-0.029-0.006c-0.35-0.104-0.753-0.164-1.17-0.164-0.882 0-1.701 0.268-2.381 0.726l0.015-0.010c-2.518-3.16-7.254-3.052-10.655-0.988-2.056 0.998-3.449 3.071-3.449 5.469 0 0.643 0.1 1.263 0.286 1.845l-0.012-0.043c-2.332 0.765-3.986 2.922-3.986 5.466 0 0.124 0.004 0.248 0.012 0.37l-0.001-0.017c-0.001 0.040-0.002 0.086-0.002 0.133 0 1.261 0.403 2.428 1.088 3.378l-0.012-0.017c0.764 1.004 1.959 1.646 3.305 1.646 0.043 0 0.086-0.001 0.129-0.002l-0.006 0 20.28-0.008c3.783-0.518 5.059-4.041 4.641-7.094z"></path>
	</g>

	<g transform="translate(256, 256) scale(0.6) translate(-256, -256)">
		<g id="map" transform="translate(256 256) scale(0.8 -0.8) translate(-256 -256)">
			<g transform="scale(22) translate(0 -1029.5)">
				<path class="outline" d="m8 1030.4 8 1v19l -8 -1z" fill="#b0b0c0"/>
				<path class="outline" d="m2 1031.4 6 -1v19l -6 1z" fill="#bdc3c7"/>
				<path class="outline" d="m16 1031.4 6 -1.5v 19.5l -6 1 z" fill="#bdc3c7"/>
				<path d="m3 1032.4 5 -1v17l -5 1z" fill="#40c040"/>
				<path d="m8 1031.4 8 1v17l -8 -1z" fill="#80f080"/>
				<path d="m21 1048.4 -5 1v -17l5 -1z" fill="#40c040"/>
				<path d="m5.6875 1031.8 -2.3125 0.5 4.625 4.9v -2.9l -2.3125 -2.5z" fill="lightgrey"/>
				<path d="m21 1046.4 -5 1v -6l5 -3z" fill="lightgrey"/>
				<path d="m21 1048.4 -5 1v -6l5 -3z" fill="#80b0ff"/>
				<path d="m8 1042.4 8 -1v6l -8 -1z" fill="lightgrey"/>
				<path d="m8 1044.4 8 -1v6l -8 -1z" fill="#c0d0f0"/>
				<path d="m3 1045.4 5 -3v4l -5 1z" fill="lightgrey"/>
				<path d="m3 1047.4 5 -3v4l -5 1z" fill="#80b0ff"/>
				<path d="m8 8.8008v -2.8985l4 8.6597h -1.469z" transform="translate(0 1028.4)" fill="lightgrey"/>
			</g>
		</g>

		<g id="user">
			<g transform="translate(50, 50)">
				<path d="M391.113, 426.667H35.554v-88.892c0-22.746, 8.678-45.495, 26.039-62.848 c17.353-17.357, 40.102-26.039, 62.848-26.039h177.783c22.75, 0, 45.495, 8.678, 62.852, 26.039 c17.353, 17.353, 26.035, 40.102, 26.035, 62.848V426.667z"/>
				<circle cx="215" cy="135" r="110"/>
			</g>
		</g>
	</g>
</svg>